<?xml version="1.0" encoding="utf-8"?>
<!-- Generator: Adobe Illustrator 19.2.1, SVG Export Plug-In . SVG Version: 6.00 Build 0)  -->
<svg version="1.1" id="layer" xmlns="http://www.w3.org/2000/svg" xmlns:xlink="http://www.w3.org/1999/xlink" x="0px" y="0px"
	 viewBox="0 0 652 652" style="enable-background:new 0 0 652 652;" xml:space="preserve">
<style type="text/css">
	.st0{fill:#49A0DD;}
	.st1{fill:#2C67AA;}
	.st2{fill:#731B2B;}
	.st3{fill:#868484;}
	.st4{fill:#CF1F65;}
</style>
<g id="edX">
	<g id="g40">
		<g id="g46" transform="translate(552.8532,297.5448)">
			<path id="path48" class="st0" d="M72.9-69.7l-0.6-44.2l-109.5,1.2l0.6,44.2h24.7l-44.2,55.3l-44.7-54.2h24.7l-0.6-44.2l-81.8,0.6
				l0.6,49.5l71.2,86.5l-70.1,87.7v8.8h33.6l0.6,44.7l48.3-0.6l-0.6-44.7h-27.7l46.5-58.9l0,0l47.7,57.7H-36l0.6,44.7L74,163.5
				l-0.6-44.7H52.8L-26,23.3l74.2-93H72.9"/>
		</g>
		<g id="g50" transform="translate(453.1595,313.64661)">
			<path id="path52" class="st1" d="M-85.9-127.6l0.6,44.2h24.1l4.1,5.3l-0.6-49.5H-85.9"/>
		</g>
		<g id="g54" transform="translate(464.76871,224.23621)">
			<path id="path56" class="st1" d="M-67.4,193.7v-8.8l-7.1,8.8h-21.2l0.6,44.7l61.8-0.6l-0.6-44.7L-67.4,193.7"/>
		</g>
		<g id="g58" transform="translate(386.1151,231.5408)">
			<path id="path60" class="st2" d="M-192.7,167.6l38.9-0.6c-4.7,11.2-11.2,21.8-18.8,31.2C-181,189.4-188,178.8-192.7,167.6"/>
		</g>
		<g id="g62" transform="translate(385.957,254.73621)">
			<path id="path64" class="st2" d="M-192.9,84.4h-7.1c-1.2,5.9-1.8,12.4-1.2,18.3c0,5.9,0.6,11.8,1.8,17.7h7.7
				c1.8-5.3,2.4-11.2,2.4-17.7C-190.6,96.1-191.2,90.2-192.9,84.4z M-192.9,84.4c1.8,5.9,2.9,11.8,2.9,18.3c0,5.9-0.6,11.8-2.4,17.7
				l37.7-0.6c-1.8-5.3-2.4-11.2-2.4-17.7s0.6-12.4,2.4-18.3L-192.9,84.4z M-174.1,30.2c-11.2,12.4-19.4,27.1-23.5,43.6
				c1.8,3.5,3.5,7.1,4.7,11.2l38.3-0.6c1.2-3.5,2.4-7.7,4.7-11.2C-154.7,56.7-162.9,42-174.1,30.2"/>
		</g>
		<g id="g66" transform="translate(384.22211,258.9922)">
			<path id="path68" class="st3" d="M-196.1,68.7c-1.2,3.5-1.8,7.1-2.4,11.2h7.1C-192.6,76.3-194.3,72.2-196.1,68.7z M-30.7,185.2
				v19.4h15.9v-33.6C-20.1,176.4-25.4,181.1-30.7,185.2z M7-29.1h-24.1l-0.6-44.2l-45.3,0.6l0.6,44.2H-33l0.6,37.7
				C-49.5-3.2-70.7-9.6-93.1-9.6c-31.2,0-59.5,14.1-78.9,35.3c11.2,12.4,18.8,26.5,23.5,43c10.6-20,31.2-33.6,55.3-33.6
				c34.7,0,61.2,27.7,61.8,62.4v0.6c0,34.7-26.5,62.4-60.6,63c-24.1,0-44.7-13-55.9-33l0,0c-1.8-3.5-3.5-7.7-4.7-11.8l-45.3,0.6
				c0.6,4.1,1.8,8.2,2.9,12.4c1.2,4.1,2.9,8.2,4.7,12.4l38.9-0.6c-4.7,11.2-11.2,21.8-18.8,31.2c20,21.2,48.3,34.7,79.5,34.1
				c23,0,43.6-7.7,60.6-20c5.9-4.1,11.2-8.8,15.9-14.1v-11.2H7l7.1-8.8L12.9-22L7-29.1"/>
		</g>
		<g id="g70" transform="translate(363.2773,288.84821)">
			<path id="path72" class="st4" d="M-229.6-38.6c-53,0.6-96.6,39.4-105.4,90.1l45.3-0.6C-282,25-258.4,6.2-230.2,6.2
				c24.1,0,44.2,13,54.8,33c4.7-16.5,13-31.2,23.5-43.6C-170.1-25.6-197.8-38.6-229.6-38.6z M-182.5,110.4
				c-11.2,13-27.1,21.2-45.9,21.2c-28.8,0-53-18.8-60.6-44.7l111.9-1.2c-1.2-5.9-1.8-11.2-1.8-17.7s0.6-12.4,1.2-18.3L-335,50.9
				c-1.2,5.9-1.8,12.4-1.2,18.3c0,5.9,0.6,11.8,1.8,17.7l0,0c8.8,51.2,53.6,89.5,106.6,88.9c31.2,0,58.9-14.1,77.7-35.3
				c-8.2-8.8-15.3-19.4-20-30.6C-170.1,110.4-182.5,110.4-182.5,110.4z M-125.4,49.7c-0.6-3.5-1.2-7.1-2.4-11.2
				c-1.8,3.5-3.5,7.1-4.7,11.2c-1.8,5.9-2.9,11.8-2.4,18.3c0,5.9,1.2,11.8,2.4,17.7h7.1c0.6-5.9,1.2-11.8,1.2-17.7
				C-123.6,62.1-124.2,55.6-125.4,49.7"/>
		</g>
	</g>
</g>
</svg>
