<?xml version="1.0" encoding="UTF-8" standalone="no"?>
<!DOCTYPE svg PUBLIC "-//W3C//DTD SVG 1.1//EN" "http://www.w3.org/Graphics/SVG/1.1/DTD/svg11.dtd">
<svg version="1.1" xmlns="http://www.w3.org/2000/svg" xmlns:xlink="http://www.w3.org/1999/xlink" preserveAspectRatio="xMidYMid meet" viewBox="0 0 509.53 162.5" width="509.53" height="162.5"><defs><path d="M213.49 28.19C211.11 33.62 211.11 39.32 213.49 42.51C216.28 46.35 219.46 43.04 219.33 36.27C219.2 25.27 233.91 17.85 242.53 24.61C249.96 30.57 245.31 44.49 235.77 44.49C233.65 44.49 231.53 44.1 231.13 43.7C230.6 43.17 232.19 39.32 234.44 34.95C237.36 29.51 238.16 26.73 237.23 25.8C235.5 24.08 232.06 25.67 228.61 29.51C225.96 32.56 212.96 63.85 214.02 64.91C215.35 66.37 220.52 65.71 221.85 63.98C222.64 63.19 224.23 59.61 225.43 56.29C225.58 55.9 226.33 53.91 227.68 50.33C232.45 50.65 235.11 50.82 235.64 50.86C243.19 51.39 243.59 51.26 248.5 46.35C257.38 37.47 256.72 25.8 247.17 18.77C242.27 15.19 229.67 14.4 224.23 17.32C218.4 20.5 215.48 23.41 213.49 28.19Z" id="g4W6XzblrQ"></path><path d="M56.73 28.45C46.13 30.44 35.92 32.82 33.93 33.88C26.37 37.73 23.72 50.72 29.02 57.48C29.2 57.71 30.08 58.86 31.68 60.93C30.08 63 29.2 64.15 29.02 64.38C24.52 70.08 24.12 75.91 27.83 82.54C31.01 88.24 31.01 88.38 28.76 91.29C23.19 98.05 25.05 110.12 32.21 114.76C36.32 117.41 79.94 131.2 84.31 131.2C86.3 131.2 104.46 127.49 124.62 122.98C159.62 115.02 161.48 114.49 161.48 111.58C161.48 109.99 160.55 108.26 159.35 107.73C158.16 107.33 140.79 110.65 120.64 115.16C118.19 115.71 105.95 118.45 83.91 123.38C69.99 118.92 62.26 116.45 60.71 115.95C47.59 111.84 36.85 107.73 35.79 106.41C32.21 101.5 36.05 92.75 41.75 92.75C42.95 92.75 52.36 95.4 62.83 98.72C73.17 102.03 82.72 104.68 84.05 104.68C85.5 104.68 103.27 100.84 123.69 96.33C159.75 88.11 160.81 87.71 160.81 84.66C160.81 82.28 160.02 81.35 157.5 81.08C155.64 80.82 139.73 84 122.1 88.11C104.46 92.09 87.76 95.4 85.11 95.4C79.01 95.4 38.97 82.81 36.18 80.02C31.68 75.38 35.39 66.23 41.88 66.23C43.34 66.23 53.15 68.89 63.5 72.2C73.84 75.51 83.38 78.17 84.71 78.17C87.63 78.17 161.48 61.33 162.4 60.53C163.86 58.94 159.88 54.3 156.97 54.3C155.24 54.3 139.33 57.62 121.7 61.59C104.07 65.57 87.63 68.89 85.24 68.89C78.35 68.89 39.23 56.02 36.58 52.84C33.53 49.13 33.53 45.68 36.85 42.37C40.43 38.79 43.48 39.05 59.52 44.36C77.68 50.46 83.78 50.99 98.5 47.8C105.13 46.35 122.89 42.5 138.01 39.45C139.85 39.07 149.04 37.17 165.59 33.75C165.19 31.44 164.97 30.16 164.92 29.91C164.39 27.78 163.99 25.8 163.73 25.66C163.07 25 114.67 18.5 111.23 18.64C109.37 18.64 100.62 20.09 91.87 21.82C83.12 23.54 67.34 26.46 56.73 28.45Z" id="hu3u7vOz"></path><path d="M334.57 58.34C331.26 57.68 329.27 54.23 331.79 53.44C332.58 53.17 335.5 52.64 338.15 52.25C347.03 50.65 352.6 40.84 347.43 35.67C341.07 29.31 329.53 34.08 324.23 45.22C320.91 52.25 313.49 60.6 312.03 59.01C311.5 58.61 313.36 53.17 315.88 46.94C318.4 40.84 320.25 35.41 319.85 35.14C319.59 34.74 317.47 35.01 315.35 35.81C312.3 36.87 311.1 36.6 309.38 35.01C304.47 30.1 295.06 35.01 291.22 44.56C290.02 47.34 287.5 51.58 285.65 53.84C281.8 58.48 277.43 59.67 278.89 55.69C279.42 54.5 281.4 49.46 283.26 44.42C285.12 39.52 286.44 35.28 286.05 34.88C285.65 34.48 283.66 34.74 281.67 35.54C278.75 36.6 277.56 36.47 275.7 34.88C269.47 29.18 260.32 35.54 256.21 48.27C253.3 57.81 254.76 62.59 260.85 63.12C263.24 63.38 266.16 62.85 267.22 61.92C268.68 60.73 269.6 60.73 270.67 61.79C273.18 64.31 280.87 63.65 284.98 60.73C285.24 60.55 286.52 59.67 288.83 58.08C289.31 59.75 289.57 60.68 289.62 60.86C290.42 63.25 291.35 63.65 295.72 62.99C298.51 62.59 300.89 62.59 300.89 62.85C300.89 63.12 298.51 64.58 295.59 66.03C286.31 70.81 284.06 77.97 291.08 80.75C296.65 82.74 303.15 78.63 306.07 71.07C306.73 69.08 309.11 66.43 311.1 65.24C313.09 63.91 316.41 61.39 318.4 59.67C321.84 56.49 321.84 56.49 323.3 59.14C325.29 62.85 332.18 64.84 338.28 63.52C345.31 61.92 350.88 57.42 355.12 49.86C355.38 49.43 356.66 47.26 358.97 43.36C359.44 46.15 359.71 47.69 359.76 48C360.82 53.7 358.97 57.68 354.99 58.34C350.61 58.88 351.28 62.32 355.92 63.65C362.02 65.37 370.5 61.53 375.27 55.16C378.72 50.39 379.25 47.47 376.73 47.47C376.2 47.47 374.35 49.59 372.62 52.25C368.38 58.48 367.05 56.22 367.45 43.76C367.72 36.34 367.32 33.82 365.86 32.89C362.02 30.5 360.56 31.7 356.05 40.45C349.42 53.57 342 59.8 334.57 58.34ZM263.77 53.44C263.77 47.74 269.34 38.99 272.26 39.92C273.05 40.18 273.58 42.43 273.45 44.82C273.05 53.04 263.77 61.26 263.77 53.44ZM299.97 56.49C296.25 57.02 296.12 54.76 298.91 47.74C301.96 40.58 306.46 37.53 308.05 41.64C309.38 44.95 303.28 56.09 299.97 56.49ZM335.1 47.47C331.92 47.47 332.05 46.28 335.63 42.57C339.08 38.85 340.67 38.72 340.67 41.9C340.67 44.95 338.15 47.47 335.1 47.47ZM292.01 74.79C291.48 74.25 292.14 72.93 293.47 71.87C296.78 69.48 298.11 70.81 295.19 73.59C294 74.79 292.54 75.32 292.01 74.79Z" id="eThlyVGB4"></path><path d="M184.09 109.65C187.19 109.73 188.92 109.77 189.26 109.78C195.36 110.04 198.67 107.53 198.67 102.75C198.67 98.78 193.24 94.93 189.39 96.12C187.14 96.79 186.74 96.39 186.74 92.94C186.74 90.69 186.21 88.83 185.42 88.83C184.62 88.83 184.09 93.21 184.09 99.17C184.09 100.57 184.09 104.06 184.09 109.65ZM191.38 106.73C188.6 106.73 187.27 106.07 187.01 104.34C186.34 101.03 189.26 97.85 192.58 98.38C194.7 98.64 195.36 99.7 195.36 102.75C195.36 106.33 194.96 106.73 191.38 106.73Z" id="i5gxqWNwhE"></path><path d="M291.48 110.04C292.28 110.04 292.81 105.67 292.81 99.44C292.81 93.21 292.28 88.83 291.48 88.83C290.69 88.83 290.16 93.21 290.16 99.44C290.16 105.67 290.69 110.04 291.48 110.04Z" id="b18HFcJOXH"></path><path d="M361.75 109.65C364.7 109.73 366.33 109.77 366.66 109.78C372.36 110.04 376.34 107 376.34 102.62C376.34 98.78 370.9 94.93 367.06 96.12C364.8 96.79 364.4 96.39 364.4 92.94C364.4 90.69 363.87 88.83 363.08 88.83C362.28 88.83 361.75 93.21 361.75 99.17C361.75 100.57 361.75 104.06 361.75 109.65ZM373.42 103.55C373.16 106.07 372.23 106.73 369.04 106.73C364.67 106.73 363.08 103.42 365.73 100.1C367.59 97.85 369.58 97.58 372.09 99.31C373.16 99.84 373.69 101.82 373.42 103.55Z" id="c5mHx0rA2v"></path><path d="M380.31 110.04C381.11 110.04 381.64 105.67 381.64 99.44C381.64 93.21 381.11 88.83 380.31 88.83C379.52 88.83 378.99 93.21 378.99 99.44C378.99 105.67 379.52 110.04 380.31 110.04Z" id="aRKlAwifC"></path><path d="M230.49 92.81C231.29 92.81 231.82 92.15 231.82 91.48C231.82 90.69 231.29 90.16 230.49 90.16C229.83 90.16 229.17 90.69 229.17 91.48C229.17 92.15 229.83 92.81 230.49 92.81Z" id="a1z3jfuxfG"></path><path d="M203.84 107.92C206.63 110.44 212.07 110.31 212.86 107.79C213.26 106.86 212.46 106.6 210.74 107C209.15 107.39 206.89 107.26 205.7 106.6C203.98 105.8 204.77 105.4 209.15 104.87C215.91 103.95 217.24 102.09 213.39 98.24C210.08 94.93 208.22 94.8 204.24 97.58C200.66 100.1 200.53 104.87 203.84 107.92ZM208.75 102.09C204.11 102.09 202.25 100.37 205.7 99.04C208.62 97.85 210.21 98.11 211.93 100.1C213.39 101.82 212.86 102.09 208.75 102.09Z" id="b5QGnZbuv"></path><path d="M235.67 110.04C236.46 110.04 237.12 107.79 237.39 105.14C237.65 101.43 238.58 99.7 241.1 98.51C242.96 97.58 244.15 96.79 243.75 96.65C241.9 96.12 235.67 96.12 235.13 96.65C233.94 97.85 234.47 110.04 235.67 110.04Z" id="cpwFBad2s"></path><path d="M247.73 110.04C248.53 110.04 249.06 107.92 249.06 105.4C249.06 102.22 249.85 100.23 251.71 99.17C253.17 98.24 254.36 97.05 254.36 96.65C254.36 95.73 247.86 95.73 246.93 96.65C245.74 97.85 246.54 110.04 247.73 110.04Z" id="a2p9eq6hqd"></path><path d="M256.88 100.37C254.49 106.73 260.19 111.77 266.82 109.25C270.67 107.79 268.94 106.2 264.3 107C261.25 107.53 259.66 107.26 259.66 106.2C259.66 105.4 261.92 104.74 264.97 104.74C269.34 104.74 270.27 104.34 270.27 102.22C270.27 97.98 264.3 94.67 259.93 96.39C259 96.79 257.54 98.51 256.88 100.37ZM262.98 102.09C258.6 102.09 258.2 101.82 259.66 100.1C261.65 97.71 266.42 97.98 267.35 100.37C267.62 101.56 266.29 102.09 262.98 102.09Z" id="b442LQIvA7"></path><path d="M274.25 116.67C275.04 116.67 275.57 114.95 275.57 112.96C275.57 109.51 275.97 109.25 279.29 109.78C286.18 110.71 290.42 102.22 285.38 97.98C283.26 96.26 274.91 95.2 273.58 96.52C272.26 97.85 272.92 116.67 274.25 116.67ZM280.61 107.13C278.09 107.39 276.9 106.86 276.24 104.74C275.18 101.16 277.83 97.85 281.41 98.38C283.53 98.64 284.19 99.7 284.19 102.75C284.19 106.07 283.66 106.86 280.61 107.13Z" id="c2FCnqQIPr"></path><path d="M305.14 109.78C309.78 109.65 310.04 109.38 310.04 105.14C310.04 100.63 306.33 95.46 303.02 95.46C302.09 95.46 299.97 96.39 298.38 97.58C292.01 101.96 296.39 110.18 305.14 109.78ZM302.75 106.73C299.57 106.73 298.64 106.07 298.38 103.55C297.58 98.64 302.89 96.26 306.07 100.1C308.72 103.42 307.13 106.73 302.75 106.73Z" id="a4xDgAHQDL"></path><path d="M320.39 109.78C325.42 109.25 325.29 106.73 320.39 106.73C316.81 106.73 315.88 106.2 315.61 103.55C315.08 99.84 317.6 97.85 321.71 98.78C325.03 99.57 325.69 97.45 322.51 96.26C319.59 95.06 318.93 95.2 315.61 97.58C309.91 101.56 313.36 110.58 320.39 109.78Z" id="j4eHiEiNJT"></path><path d="M329.8 107.92C332.45 110.44 338.02 110.44 338.82 107.92C339.08 107.13 337.76 106.73 335.37 107.13C333.25 107.39 331.13 107 330.73 106.2C330.07 105.27 331.66 104.74 335.24 104.74C341.87 104.74 343.85 101.56 339.35 97.85C335.37 94.8 333.25 94.8 329.93 98.11C326.62 101.43 326.62 105.01 329.8 107.92ZM334.44 102.09C330.33 102.09 329.8 101.82 331.26 100.1C333.11 97.85 334.04 97.71 337.09 98.91C340.8 100.37 339.35 102.09 334.44 102.09Z" id="a8Z4wmT49"></path><path d="M344.52 102.75C344.52 107.53 347.96 110.04 353.93 109.78C358.84 109.65 359.1 109.38 359.1 105.14C359.1 100.63 355.39 95.46 352.07 95.46C351.15 95.46 349.02 96.39 347.43 97.58C345.84 98.64 344.52 101.03 344.52 102.75ZM351.81 106.73C347.7 106.73 346.11 104.08 347.7 99.97C348.63 97.58 353 97.58 355.12 100.1C357.78 103.42 356.18 106.73 351.81 106.73Z" id="exQVntoHj"></path><path d="M386.41 108.06C388.8 110.44 395.03 110.31 395.83 107.79C396.22 106.86 395.43 106.6 393.71 107C392.11 107.39 389.86 107.26 388.67 106.6C386.94 105.8 387.74 105.4 392.11 104.87C398.88 103.95 400.2 102.09 396.36 98.24C393.04 94.93 391.19 94.8 387.21 97.58C383.76 99.97 383.36 105.01 386.41 108.06ZM391.72 102.09C387.21 102.09 385.88 101.03 387.87 99.04C389.33 97.45 393.18 97.98 394.9 100.1C396.36 101.82 395.83 102.09 391.72 102.09Z" id="i2yPwuMhjV"></path><path d="M230.49 110.04C231.29 110.04 231.82 107 231.82 103.42C231.82 99.7 231.29 96.79 230.49 96.79C229.83 96.79 229.17 99.7 229.17 103.42C229.17 107 229.83 110.04 230.49 110.04Z" id="abyaMySfg"></path></defs><g><g><g><use xlink:href="#g4W6XzblrQ" opacity="1" fill="#f0e1e1" fill-opacity="1"></use><g><use xlink:href="#g4W6XzblrQ" opacity="1" fill-opacity="0" stroke="#000000" stroke-width="1" stroke-opacity="0"></use></g></g><g><use xlink:href="#hu3u7vOz" opacity="1" fill="#f0e1e1" fill-opacity="1"></use><g><use xlink:href="#hu3u7vOz" opacity="1" fill-opacity="0" stroke="#000000" stroke-width="1" stroke-opacity="0"></use></g></g><g><use xlink:href="#eThlyVGB4" opacity="1" fill="#f0e1e1" fill-opacity="1"></use><g><use xlink:href="#eThlyVGB4" opacity="1" fill-opacity="0" stroke="#000000" stroke-width="1" stroke-opacity="0"></use></g></g><g><use xlink:href="#i5gxqWNwhE" opacity="1" fill="#f0e1e1" fill-opacity="1"></use><g><use xlink:href="#i5gxqWNwhE" opacity="1" fill-opacity="0" stroke="#000000" stroke-width="1" stroke-opacity="0"></use></g></g><g><use xlink:href="#b18HFcJOXH" opacity="1" fill="#f0e1e1" fill-opacity="1"></use><g><use xlink:href="#b18HFcJOXH" opacity="1" fill-opacity="0" stroke="#000000" stroke-width="1" stroke-opacity="0"></use></g></g><g><use xlink:href="#c5mHx0rA2v" opacity="1" fill="#f0e1e1" fill-opacity="1"></use><g><use xlink:href="#c5mHx0rA2v" opacity="1" fill-opacity="0" stroke="#000000" stroke-width="1" stroke-opacity="0"></use></g></g><g><use xlink:href="#aRKlAwifC" opacity="1" fill="#f0e1e1" fill-opacity="1"></use><g><use xlink:href="#aRKlAwifC" opacity="1" fill-opacity="0" stroke="#000000" stroke-width="1" stroke-opacity="0"></use></g></g><g><use xlink:href="#a1z3jfuxfG" opacity="1" fill="#f0e1e1" fill-opacity="1"></use><g><use xlink:href="#a1z3jfuxfG" opacity="1" fill-opacity="0" stroke="#000000" stroke-width="1" stroke-opacity="0"></use></g></g><g><use xlink:href="#b5QGnZbuv" opacity="1" fill="#f0e1e1" fill-opacity="1"></use><g><use xlink:href="#b5QGnZbuv" opacity="1" fill-opacity="0" stroke="#000000" stroke-width="1" stroke-opacity="0"></use></g></g><g><use xlink:href="#cpwFBad2s" opacity="1" fill="#f0e1e1" fill-opacity="1"></use><g><use xlink:href="#cpwFBad2s" opacity="1" fill-opacity="0" stroke="#000000" stroke-width="1" stroke-opacity="0"></use></g></g><g><use xlink:href="#a2p9eq6hqd" opacity="1" fill="#f0e1e1" fill-opacity="1"></use><g><use xlink:href="#a2p9eq6hqd" opacity="1" fill-opacity="0" stroke="#000000" stroke-width="1" stroke-opacity="0"></use></g></g><g><use xlink:href="#b442LQIvA7" opacity="1" fill="#f0e1e1" fill-opacity="1"></use><g><use xlink:href="#b442LQIvA7" opacity="1" fill-opacity="0" stroke="#000000" stroke-width="1" stroke-opacity="0"></use></g></g><g><use xlink:href="#c2FCnqQIPr" opacity="1" fill="#f0e1e1" fill-opacity="1"></use><g><use xlink:href="#c2FCnqQIPr" opacity="1" fill-opacity="0" stroke="#000000" stroke-width="1" stroke-opacity="0"></use></g></g><g><use xlink:href="#a4xDgAHQDL" opacity="1" fill="#f0e1e1" fill-opacity="1"></use><g><use xlink:href="#a4xDgAHQDL" opacity="1" fill-opacity="0" stroke="#000000" stroke-width="1" stroke-opacity="0"></use></g></g><g><use xlink:href="#j4eHiEiNJT" opacity="1" fill="#f0e1e1" fill-opacity="1"></use><g><use xlink:href="#j4eHiEiNJT" opacity="1" fill-opacity="0" stroke="#000000" stroke-width="1" stroke-opacity="0"></use></g></g><g><use xlink:href="#a8Z4wmT49" opacity="1" fill="#f0e1e1" fill-opacity="1"></use><g><use xlink:href="#a8Z4wmT49" opacity="1" fill-opacity="0" stroke="#000000" stroke-width="1" stroke-opacity="0"></use></g></g><g><use xlink:href="#exQVntoHj" opacity="1" fill="#f0e1e1" fill-opacity="1"></use><g><use xlink:href="#exQVntoHj" opacity="1" fill-opacity="0" stroke="#000000" stroke-width="1" stroke-opacity="0"></use></g></g><g><use xlink:href="#i2yPwuMhjV" opacity="1" fill="#f0e1e1" fill-opacity="1"></use><g><use xlink:href="#i2yPwuMhjV" opacity="1" fill-opacity="0" stroke="#000000" stroke-width="1" stroke-opacity="0"></use></g></g><g><use xlink:href="#abyaMySfg" opacity="1" fill="#f0e1e1" fill-opacity="1"></use><g><use xlink:href="#abyaMySfg" opacity="1" fill-opacity="0" stroke="#000000" stroke-width="1" stroke-opacity="0"></use></g></g></g></g></svg>