<?xml version="1.0" standalone="no"?>
<!DOCTYPE svg PUBLIC "-//W3C//DTD SVG 20010904//EN"
 "http://www.w3.org/TR/2001/REC-SVG-20010904/DTD/svg10.dtd">
<svg version="1.0" xmlns="http://www.w3.org/2000/svg"
 width="300.000000pt" height="89.000000pt" viewBox="0 0 300.000000 89.000000"
 preserveAspectRatio="xMidYMid meet">

<g transform="translate(0.000000,89.000000) scale(0.100000,-0.100000)"
fill="#000000" stroke="none">
<path d="M1665 865 c-44 -24 -66 -46 -81 -82 -18 -41 -18 -84 0 -108 21 -29
45 -4 44 47 -1 83 110 139 175 88 56 -45 21 -150 -51 -150 -16 0 -32 3 -35 6
-4 4 8 33 25 66 22 41 28 62 21 69 -13 13 -39 1 -65 -28 -20 -23 -118 -259
-110 -267 10 -11 49 -6 59 7 6 6 18 33 27 58 l17 45 60 -4 c57 -4 60 -3 97 34
67 67 62 155 -10 208 -37 27 -132 33 -173 11z"/>
<path d="M505 845 c-66 -13 -185 -35 -265 -50 -80 -15 -157 -33 -172 -41 -57
-29 -77 -127 -37 -178 l20 -26 -20 -26 c-34 -43 -37 -87 -9 -137 24 -43 24
-44 7 -66 -42 -51 -28 -142 26 -177 31 -20 360 -124 393 -124 15 0 152 28 304
62 264 60 278 64 278 86 0 12 -7 25 -16 29 -9 3 -140 -22 -292 -56 l-277 -62
-175 56 c-99 31 -180 62 -188 72 -27 37 2 103 45 103 9 0 80 -20 159 -45 78
-25 150 -45 160 -45 11 0 145 29 299 63 272 62 280 65 280 88 0 18 -6 25 -25
27 -14 2 -134 -22 -267 -53 -133 -30 -259 -55 -279 -55 -46 0 -348 95 -369
116 -34 35 -6 104 43 104 11 0 85 -20 163 -45 78 -25 150 -45 160 -45 22 0
579 127 586 133 11 12 -19 47 -41 47 -13 0 -133 -25 -266 -55 -133 -30 -257
-55 -275 -55 -52 0 -347 97 -367 121 -23 28 -23 54 2 79 27 27 50 25 171 -15
137 -46 183 -50 294 -26 50 11 184 40 298 63 l208 43 -5 29 c-4 16 -7 31 -9
32 -5 5 -370 54 -396 53 -14 0 -80 -11 -146 -24z"/>
<path d="M2636 683 c-50 -99 -106 -146 -162 -135 -25 5 -40 31 -21 37 6 2 28
6 48 9 67 12 109 86 70 125 -48 48 -135 12 -175 -72 -25 -53 -81 -116 -92
-104 -4 3 10 44 29 91 19 46 33 87 30 89 -2 3 -18 1 -34 -5 -23 -8 -32 -6 -45
6 -37 37 -108 0 -137 -72 -9 -21 -28 -53 -42 -70 -29 -35 -62 -44 -51 -14 4 9
19 47 33 85 14 37 24 69 21 72 -3 3 -18 1 -33 -5 -22 -8 -31 -7 -45 5 -47 43
-116 -5 -147 -101 -22 -72 -11 -108 35 -112 18 -2 40 2 48 9 11 9 18 9 26 1
19 -19 77 -14 108 8 l29 20 6 -21 c6 -18 13 -21 46 -16 21 3 39 3 39 1 0 -2
-18 -13 -40 -24 -70 -36 -87 -90 -34 -111 42 -15 91 16 113 73 5 15 23 35 38
44 15 10 40 29 55 42 26 24 26 24 37 4 15 -28 67 -43 113 -33 53 12 95 46 127
103 l29 49 6 -35 c8 -43 -6 -73 -36 -78 -33 -4 -28 -30 7 -40 46 -13 110 16
146 64 26 36 30 58 11 58 -4 0 -18 -16 -31 -36 -32 -47 -42 -30 -39 64 2 56
-1 75 -12 82 -29 18 -40 9 -74 -57z m-623 -33 c-3 -62 -73 -124 -73 -65 0 43
42 109 64 102 6 -2 10 -19 9 -37z m261 24 c10 -25 -36 -109 -61 -112 -28 -4
-29 13 -8 66 23 54 57 77 69 46z m246 -2 c0 -23 -19 -42 -42 -42 -24 0 -23 9
4 37 26 28 38 29 38 5z m-343 -239 c-9 -9 -20 -13 -24 -9 -4 4 1 14 11 22 25
18 35 8 13 -13z"/>
<path d="M1380 142 l0 -79 39 -1 c46 -2 71 17 71 53 0 30 -41 59 -70 50 -17
-5 -20 -2 -20 24 0 17 -4 31 -10 31 -6 0 -10 -33 -10 -78z m85 -27 c0 -27 -3
-30 -30 -30 -21 0 -31 5 -33 18 -5 25 17 49 42 45 16 -2 21 -10 21 -33z"/>
<path d="M2180 140 c0 -47 4 -80 10 -80 6 0 10 33 10 80 0 47 -4 80 -10 80 -6
0 -10 -33 -10 -80z"/>
<path d="M2720 142 l0 -79 37 -1 c43 -2 73 21 73 54 0 29 -41 58 -70 49 -17
-5 -20 -2 -20 24 0 17 -4 31 -10 31 -6 0 -10 -33 -10 -78z m78 -1 c8 -4 12
-19 10 -32 -2 -19 -9 -24 -33 -24 -33 0 -45 25 -25 50 14 17 29 19 48 6z"/>
<path d="M2850 140 c0 -47 4 -80 10 -80 6 0 10 33 10 80 0 47 -4 80 -10 80 -6
0 -10 -33 -10 -80z"/>
<path d="M1720 200 c0 -5 5 -10 10 -10 6 0 10 5 10 10 0 6 -4 10 -10 10 -5 0
-10 -4 -10 -10z"/>
<path d="M1532 154 c-27 -19 -28 -55 -3 -78 21 -19 62 -18 68 1 3 7 -3 9 -16
6 -12 -3 -29 -2 -38 3 -13 6 -7 9 26 13 51 7 61 21 32 50 -25 25 -39 26 -69 5z
m58 -19 c11 -13 7 -15 -24 -15 -35 0 -49 13 -23 23 22 9 34 7 47 -8z"/>
<path d="M1765 161 c-9 -9 -5 -101 4 -101 6 0 11 17 13 37 2 28 9 41 28 50 14
7 23 13 20 14 -14 4 -61 4 -65 0z"/>
<path d="M1854 161 c-9 -9 -3 -101 6 -101 6 0 10 16 10 35 0 24 6 39 20 47 11
7 20 16 20 19 0 7 -49 7 -56 0z"/>
<path d="M1952 163 c-7 -3 -18 -16 -23 -30 -18 -48 25 -86 75 -67 29 11 16 23
-19 17 -23 -4 -35 -2 -35 6 0 6 17 11 40 11 33 0 40 3 40 19 0 32 -45 57 -78
44z m56 -30 c2 -9 -8 -13 -33 -13 -33 0 -36 2 -25 15 15 18 51 16 58 -2z"/>
<path d="M2055 162 c-10 -10 -5 -152 5 -152 6 0 10 13 10 28 0 26 3 28 28 24
52 -7 84 57 46 89 -16 13 -79 21 -89 11z m80 -47 c0 -25 -4 -31 -27 -33 -19
-2 -28 2 -33 18 -8 27 12 52 39 48 16 -2 21 -10 21 -33z"/>
<path d="M2242 154 c-48 -33 -15 -95 51 -92 35 1 37 3 37 35 0 34 -28 73 -53
73 -7 0 -23 -7 -35 -16z m58 -19 c20 -25 8 -50 -25 -50 -24 0 -31 5 -33 24 -6
37 34 55 58 26z"/>
<path d="M2372 154 c-43 -30 -17 -98 36 -92 38 4 37 23 0 23 -27 0 -34 4 -36
24 -4 28 15 43 46 36 25 -6 30 10 6 19 -22 9 -27 8 -52 -10z"/>
<path d="M2480 150 c-25 -25 -25 -52 -1 -74 20 -19 62 -19 68 0 2 6 -8 9 -26
6 -16 -2 -32 1 -35 7 -5 7 7 11 34 11 50 0 65 24 31 52 -30 23 -46 23 -71 -2z
m54 -6 c28 -11 17 -24 -20 -24 -31 0 -35 2 -24 15 14 17 21 18 44 9z"/>
<path d="M2612 154 c-12 -8 -22 -26 -22 -39 0 -36 26 -55 71 -53 37 1 39 3 39
35 0 34 -28 73 -53 73 -7 0 -23 -7 -35 -16z m58 -19 c20 -25 8 -50 -25 -50
-31 0 -43 20 -31 51 7 18 40 18 56 -1z"/>
<path d="M2912 154 c-26 -18 -29 -56 -6 -79 18 -18 65 -17 71 2 3 7 -3 9 -16
6 -12 -3 -29 -2 -38 3 -13 6 -7 9 26 13 51 7 61 21 32 50 -25 25 -39 26 -69 5z
m58 -19 c11 -13 7 -15 -24 -15 -34 0 -44 8 -29 23 11 12 40 8 53 -8z"/>
<path d="M1720 110 c0 -27 5 -50 10 -50 6 0 10 23 10 50 0 28 -4 50 -10 50 -5
0 -10 -22 -10 -50z"/>
</g>
</svg>
